# xmcd CD database file
#
# Track frame offsets:
#	150
#	13012
#	25170
#	39340
#	54037
#	69607
#	81952
#	92897
#	105262
#	118132
#	132385
#	145357
#	157375
#	170940
#	183900
#	196645
#	208787
#	219590
#
# Disc length: 3077 seconds
#
# Revision: 5
# Processed by: cddbd v1.5.2PL0 Copyright (c) Steve Scherf et al.
# Submitted via: CDex 1.94
#
DISCID=030c0312
DTITLE=Various Artist - Chess Blues-Rock Songbook (Classic Originals) CD 2
DYEAR=1998
DGENRE=Blues
TTITLE0=Muddy Waters - I'm Your Hoochie Coochie Man
TTITLE1=Memphis Slim - Mother Earth
TTITLE2=Willie Mabon - I Don't Know
TTITLE3=John Lee Hooker - Sugar Mama
TTITLE4=Eddie Boyd - 24 Hours
TTITLE5=John Brim - Ice Cream Man
TTITLE6=Sugar Boy Crawford - Jock-A-Mo
TTITLE7=Willie Dixon - Wang Dang Doodle
TTITLE8=Muddy Waters - I Just Want To Make Love To You
TTITLE9=Lowell Fulson - Reconsider Baby
TTITLE10=J.B. Lenoir - Eisenhower Blues
TTITLE11=Little Water - My Babe
TTITLE12=Bo Diddley - I'm A Man
TTITLE13=Willie Mabon - The Seventh Son
TTITLE14=Bobby Charles - See You Later Alligator
TTITLE15=Muddy Waters - Trouble No More
TTITLE16=Chuck Berry - Roll Over Beethoven
TTITLE17=Bo Diddley - Who Do You Love? 
EXTD=YEAR: 1998
EXTT0=
EXTT1=
EXTT2=
EXTT3=
EXTT4=
EXTT5=
EXTT6=
EXTT7=
EXTT8=
EXTT9=
EXTT10=
EXTT11=
EXTT12=
EXTT13=
EXTT14=
EXTT15=
EXTT16=
EXTT17=
PLAYORDER=
